{
  "accessors": [
    {
      "bufferView": 2,
      "componentType": 5126,
      "count": 65534,
      "max": [
        0.31137499213218689,
        0.99501997232437134,
        0.19360199570655823
      ],
      "min": [
        -0.31106999516487122,
        -1,
        -0.19360199570655823
      ],
      "type": "VEC3"
    },
    {
      "bufferView": 2,
      "byteOffset": 786408,
      "componentType": 5126,
      "count": 65534,
      "max": [
        0.99996787309646606,
        0.99665248394012451,
        0.99999648332595825
      ],
      "min": [
        -0.99997234344482422,
        -1,
        -0.99999076128005981
      ],
      "type": "VEC3"
    },
    {
      "bufferView": 3,
      "componentType": 5126,
      "count": 65534,
      "max": [
        0.99998605251312256,
        0.99999815225601196,
        0.99999940395355225,
        1
      ],
      "min": [
        -0.99999994039535522,
        -0.99945330619812012,
        -0.9999881386756897,
        -1
      ],
      "type": "VEC4"
    },
    {
      "bufferView": 2,
      "byteOffset": 1572816,
      "componentType": 5126,
      "count": 65534,
      "max": [
        1,
        1,
        1
      ],
      "min": [
        0.094117648899555206,
        0.094117648899555206,
        0.094117648899555206
      ],
      "type": "VEC3"
    },
    {
      "bufferView": 1,
      "componentType": 5126,
      "count": 65534,
      "max": [
        0.98461800813674927,
        0.80346298217773438
      ],
      "min": [
        0.002921669976785779,
        0.0063698100857436657
      ],
      "type": "VEC2"
    },
    {
      "bufferView": 0,
      "componentType": 5125,
      "count": 175779,
      "max": [
        65533
      ],
      "min": [
        0
      ],
      "type": "SCALAR"
    },
    {
      "bufferView": 2,
      "byteOffset": 2359224,
      "componentType": 5126,
      "count": 65532,
      "max": [
        0.30981200933456421,
        1,
        0.19360199570655823
      ],
      "min": [
        -0.31137499213218689,
        -0.54589802026748657,
        -0.19290100038051605
      ],
      "type": "VEC3"
    },
    {
      "bufferView": 2,
      "byteOffset": 3145608,
      "componentType": 5126,
      "count": 65532,
      "max": [
        0.9999997615814209,
        0.99995797872543335,
        0.99999576807022095
      ],
      "min": [
        -0.99999666213989258,
        -0.99949133396148682,
        -0.99999737739562988
      ],
      "type": "VEC3"
    },
    {
      "bufferView": 3,
      "byteOffset": 1048544,
      "componentType": 5126,
      "count": 65532,
      "max": [
        0.99998414516448975,
        0.99999666213989258,
        0.99980384111404419,
        1
      ],
      "min": [
        -0.99975508451461792,
        -0.99944519996643066,
        -0.9996446967124939,
        -1
      ],
      "type": "VEC4"
    },
    {
      "bufferView": 2,
      "byteOffset": 3931992,
      "componentType": 5126,
      "count": 65532,
      "max": [
        1,
        1,
        1
      ],
      "min": [
        0,
        0,
        0
      ],
      "type": "VEC3"
    },
    {
      "bufferView": 1,
      "byteOffset": 524272,
      "componentType": 5126,
      "count": 65532,
      "max": [
        0.99804699420928955,
        0.7996399998664856
      ],
      "min": [
        0.15382100641727448,
        0.055835399776697159
      ],
      "type": "VEC2"
    },
    {
      "bufferView": 0,
      "byteOffset": 703116,
      "componentType": 5125,
      "count": 343677,
      "max": [
        65531
      ],
      "min": [
        0
      ],
      "type": "SCALAR"
    },
    {
      "bufferView": 2,
      "byteOffset": 4718376,
      "componentType": 5126,
      "count": 49373,
      "max": [
        0.31075000762939453,
        0.78690999746322632,
        0.19233299791812897
      ],
      "min": [
        -0.30364999175071716,
        -1,
        -0.19161200523376465
      ],
      "type": "VEC3"
    },
    {
      "bufferView": 2,
      "byteOffset": 5310852,
      "componentType": 5126,
      "count": 49373,
      "max": [
        0.99997347593307495,
        0.98949921131134033,
        0.99998325109481812
      ],
      "min": [
        -0.99999666213989258,
        -1,
        -0.99999076128005981
      ],
      "type": "VEC3"
    },
    {
      "bufferView": 3,
      "byteOffset": 2097056,
      "componentType": 5126,
      "count": 49373,
      "max": [
        1,
        0.99998557567596436,
        0.99999970197677612,
        1
      ],
      "min": [
        -0.99999994039535522,
        -0.99952602386474609,
        -0.99989110231399536,
        1
      ],
      "type": "VEC4"
    },
    {
      "bufferView": 2,
      "byteOffset": 5903328,
      "componentType": 5126,
      "count": 49373,
      "max": [
        0,
        0,
        0
      ],
      "min": [
        0,
        0,
        0
      ],
      "type": "VEC3"
    },
    {
      "bufferView": 1,
      "byteOffset": 1048528,
      "componentType": 5126,
      "count": 49373,
      "max": [
        0.9077720046043396,
        0.79847300052642822
      ],
      "min": [
        0.0019531199941411614,
        0.0019531199941411614
      ],
      "type": "VEC2"
    },
    {
      "bufferView": 0,
      "byteOffset": 2077824,
      "componentType": 5125,
      "count": 259488,
      "max": [
        49372
      ],
      "min": [
        0
      ],
      "type": "SCALAR"
    }
  ],
  "asset": {
    "extras": {
      "author": "rusttm88 (https://sketchfab.com/rusttm88)",
      "license": "CC-BY-4.0 (http://creativecommons.org/licenses/by/4.0/)",
      "source": "https://sketchfab.com/3d-models/3d-scan-man-1-ad42febfaeb64aa0992e804acc9e7ccd",
      "title": "3d scan man 1"
    },
    "generator": "Sketchfab-4.40.0",
    "version": "2.0"
  },
  "bufferViews": [
    {
      "buffer": 0,
      "byteLength": 3115776,
      "byteOffset": 0,
      "name": "floatBufferViews",
      "target": 34963
    },
    {
      "buffer": 0,
      "byteLength": 1443512,
      "byteOffset": 3115776,
      "byteStride": 8,
      "name": "floatBufferViews",
      "target": 34962
    },
    {
      "buffer": 0,
      "byteLength": 6495804,
      "byteOffset": 4559288,
      "byteStride": 12,
      "name": "floatBufferViews",
      "target": 34962
    },
    {
      "buffer": 0,
      "byteLength": 2887024,
      "byteOffset": 11055092,
      "byteStride": 16,
      "name": "floatBufferViews",
      "target": 34962
    }
  ],
  "buffers": [
    {
      "byteLength": 13942116,
      "uri": "scene.bin"
    }
  ],
  "images": [
    {
      "uri": "textures/M_3d_scan_man_1_metallicRoughness.png"
    },
    {
      "uri": "textures/M_3d_scan_man_1_normal.png"
    },
    {
      "uri": "textures/M_3d_scan_man_1_baseColor.jpeg"
    }
  ],
  "materials": [
    {
      "doubleSided": true,
      "name": "M_3d_scan_man_1",
      "normalTexture": {
        "index": 1,
        "scale": 1,
        "texCoord": 0
      },
      "pbrMetallicRoughness": {
        "baseColorFactor": [
          1,
          1,
          1,
          1
        ],
        "baseColorTexture": {
          "index": 2,
          "texCoord": 0
        },
        "metallicFactor": 1,
        "metallicRoughnessTexture": {
          "index": 0,
          "texCoord": 0
        },
        "roughnessFactor": 1
      }
    }
  ],
  "meshes": [
    {
      "name": "defaultMaterial",
      "primitives": [
        {
          "attributes": {
            "COLOR_0": 3,
            "NORMAL": 1,
            "POSITION": 0,
            "TANGENT": 2,
            "TEXCOORD_0": 4
          },
          "indices": 5,
          "material": 0,
          "mode": 4
        }
      ]
    },
    {
      "name": "defaultMaterial",
      "primitives": [
        {
          "attributes": {
            "COLOR_0": 9,
            "NORMAL": 7,
            "POSITION": 6,
            "TANGENT": 8,
            "TEXCOORD_0": 10
          },
          "indices": 11,
          "material": 0,
          "mode": 4
        }
      ]
    },
    {
      "name": "defaultMaterial",
      "primitives": [
        {
          "attributes": {
            "COLOR_0": 15,
            "NORMAL": 13,
            "POSITION": 12,
            "TANGENT": 14,
            "TEXCOORD_0": 16
          },
          "indices": 17,
          "material": 0,
          "mode": 4
        }
      ]
    }
  ],
  "nodes": [
    {
      "children": [
        1
      ],
      "name": "RootNode (gltf orientation matrix)",
      "rotation": [
        -0.70710678118654746,
        -0,
        -0,
        0.70710678118654757
      ]
    },
    {
      "children": [
        2
      ],
      "matrix": [
        1,
        0,
        0,
        0,
        0,
        1,
        0,
        0,
        0,
        0,
        1,
        0,
        0,
        -2.8000000540373549e-08,
        -4.4999999282424596e-09,
        1
      ],
      "name": "RootNode (model correction matrix)"
    },
    {
      "children": [
        3
      ],
      "matrix": [
        1,
        0,
        0,
        0,
        0,
        -4.3711390063094768e-08,
        0.999999999999999,
        0,
        0,
        -0.999999999999999,
        -4.3711390063094768e-08,
        0,
        0,
        0,
        0,
        1
      ],
      "name": "Collada visual scene group"
    },
    {
      "children": [
        4,
        5,
        6
      ],
      "name": "3d"
    },
    {
      "mesh": 0,
      "name": "defaultMaterial"
    },
    {
      "mesh": 1,
      "name": "defaultMaterial"
    },
    {
      "mesh": 2,
      "name": "defaultMaterial"
    }
  ],
  "samplers": [
    {
      "magFilter": 9729,
      "minFilter": 9987,
      "wrapS": 10497,
      "wrapT": 10497
    }
  ],
  "scene": 0,
  "scenes": [
    {
      "name": "OSG_Scene",
      "nodes": [
        0
      ]
    }
  ],
  "textures": [
    {
      "sampler": 0,
      "source": 0
    },
    {
      "sampler": 0,
      "source": 1
    },
    {
      "sampler": 0,
      "source": 2
    }
  ]
}

